<svg xmlns="http://www.w3.org/2000/svg" viewBox="0 0 400.9 119.6" enable-background="new 0 0 400.9 119.6"><path fill="#fff" d="M89.4 16v61.4c1.3 1.2 2.6 2.2 4 3.2V12.8c-1.4 1-2.8 2.1-4 3.2zM82.6 88.5H65.1c-3.7 0-6.8-3-6.8-6.8 0-5.9-4.8-10.8-10.8-10.8s-10.8 4.8-10.8 10.8c0 3.7-3 6.8-6.8 6.8H12.6c-3.7 0-6.8-3-6.8-6.8v-70C5.8 8 8.9 5 12.6 5h17.5c3.7 0 6.8 3 6.8 6.8 0 5.9 4.8 10.8 10.8 10.8s10.8-4.8 10.8-10.8c0-3.7 3-6.8 6.8-6.8h17.5c3.4 0 6.2 2.6 6.7 5.9 1.1-.9 2.3-1.7 3.5-2.5C91.4 4.1 87.4 1 82.6 1H65.1c-5.9 0-10.8 4.8-10.8 10.8 0 3.7-3 6.8-6.8 6.8s-6.8-3-6.8-6.8C40.9 5.8 36 1 30.1 1H12.6C6.7 1 1.8 5.8 1.8 11.8v70c0 5.9 4.8 10.8 10.8 10.8h17.5c5.9 0 10.8-4.8 10.8-10.8 0-3.7 3-6.8 6.8-6.8s6.8 3 6.8 6.8c0 5.9 4.8 10.8 10.8 10.8h17.5c4.7 0 8.8-3.1 10.2-7.3-1.2-.8-2.4-1.6-3.5-2.5-.6 3.2-3.5 5.7-6.9 5.7zM117.6 88.5c-9 0-17.4-2.9-24.3-7.8-1.4-1-2.7-2.1-4-3.2-8.3-7.6-13.5-18.6-13.5-30.7S81.1 23.7 89.4 16c1.3-1.2 2.6-2.2 4-3.2 6.8-4.9 15.2-7.8 24.3-7.8 13.1 0 24.9 6.1 32.5 15.6.8-1.1 1.6-2.2 2.5-3.3-8.4-10-21-16.3-35-16.3-9.1 0-17.7 2.7-24.8 7.3-1.2.8-2.4 1.6-3.5 2.5C78.8 19.2 72 32.2 72 46.7s6.8 27.5 17.4 35.9c1.1.9 2.3 1.7 3.5 2.5 7.2 4.6 15.7 7.3 24.8 7.3 14 0 26.6-6.4 35-16.3-.9-1-1.7-2.1-2.5-3.3-7.7 9.6-19.4 15.7-32.6 15.7zM155.1 20.6c-.9 1.1-1.7 2.3-2.5 3.4 4.3 6.5 6.8 14.4 6.8 22.7s-2.5 16.2-6.8 22.7c.8 1.2 1.6 2.3 2.5 3.4 5.2-7.4 8.3-16.4 8.3-26.2s-3.1-18.6-8.3-26zM211.9 80.7c-6.8 4.9-15.2 7.8-24.3 7.8-13.1 0-24.9-6.1-32.5-15.6-.9-1.1-1.7-2.3-2.5-3.4-4.3-6.5-6.8-14.3-6.8-22.7s2.5-16.2 6.8-22.7c.8-1.2 1.6-2.3 2.5-3.4C162.8 11.1 174.5 5 187.7 5c9 0 17.4 2.9 24.3 7.8v-1c0-1.2.3-2.3.7-3.3-7.2-4.7-15.8-7.4-25-7.4-14 0-26.6 6.4-35 16.3-.9 1-1.7 2.1-2.5 3.3-5.2 7.4-8.3 16.4-8.3 26.2s3.1 18.7 8.3 26.2c.8 1.1 1.6 2.2 2.5 3.3 8.4 10 21 16.3 35 16.3 9.2 0 17.8-2.7 25-7.4-.5-1-.7-2.2-.7-3.3l-.1-1.3zM233.4 46.8c0-14.5-6.8-27.5-17.4-35.9-.1.3-.1.6-.1.9V16c8.3 7.6 13.5 18.6 13.5 30.7s-5.2 23.1-13.5 30.7v4.3c0 .3 0 .6.1.9 10.6-8.4 17.4-21.3 17.4-35.8zM227 5c-5.6 0-10.3 2.6-11 5.9-.1.3-.1.6-.1.9V81.7c0 .3 0 .6.1.9.7 3.3 5.5 5.9 11 5.9h30.6c9 0 17.4-2.9 24.3-7.8v1c0 1.2.2 2.3.7 3.3-7.2 4.7-15.7 7.4-24.9 7.4H227c-6.9 0-12.5-3.1-14.4-7.4-.5-1-.7-2.2-.7-3.3V11.8c0-1.2.3-2.3.7-3.3C214.5 4.1 220.2 1 227 1h30.6c9.2 0 17.7 2.7 24.9 7.4-.4 1.1-.7 2.2-.7 3.4v1C275.1 7.9 266.7 5 257.7 5H227zM303.4 46.8c0-14.5-6.8-27.5-17.4-35.9 0 .3-.1.6-.1.9V16c8.3 7.6 13.5 18.6 13.5 30.7s-5.2 23.1-13.5 30.7v4.3c0 .3 0 .6.1.9 10.6-8.3 17.4-21.3 17.4-35.8zM325.7 16v61.4c1.3 1.2 2.6 2.2 4 3.2V12.8c-1.4 1-2.7 2.1-4 3.2zM316.8 88.5h-21.9c-4.5 0-8.3-2.6-8.9-5.9 0-.3-.1-.6-.1-.9v-70c0-.3 0-.6.1-.9.6-3.3 4.3-5.9 8.9-5.9h21.9c4.5 0 8.3 2.6 8.9 5.9 1.1-.9 2.2-1.7 3.4-2.5C327.4 4 322.5.9 316.8.9h-21.9c-5.7 0-10.6 3.1-12.3 7.4-.4 1.1-.7 2.2-.7 3.4v69.9c0 1.2.2 2.3.7 3.3 1.7 4.3 6.6 7.4 12.3 7.4h21.9c5.7 0 10.6-3.1 12.3-7.4-1.2-.8-2.3-1.6-3.4-2.5-.7 3.6-4.4 6.1-8.9 6.1zM399.7 24.9V11.8c0-6-4.8-10.8-10.7-10.8h-35c-9.2 0-17.7 2.7-24.9 7.4-1.2.8-2.3 1.6-3.4 2.5-10.6 8.4-17.4 21.4-17.4 35.9s6.8 27.5 17.4 35.9c1.1.9 2.2 1.7 3.4 2.5 7.2 4.7 15.7 7.4 24.9 7.4h35c5.9 0 10.8-4.8 10.8-10.8V68.6c0-3.6-1.8-6.8-4.5-8.7 2.7-1.9 4.5-5.1 4.5-8.8v-8.8c0-3.8-1.9-6.8-4.6-8.7 2.7-1.9 4.5-5.1 4.5-8.7zm-4 0c0 3.7-3 6.8-6.8 6.8v4c3.2 0 6.8 2.8 6.8 6.8v8.8c0 3.8-3 6.8-6.8 6.8v4c3.7 0 6.8 3 6.8 6.8V82c0 3.7-3 6.8-6.8 6.8h-35c-9 0-17.4-2.9-24.3-7.8-1.4-1-2.7-2.1-4-3.2-8.3-7.6-13.5-18.6-13.5-30.7s5.2-23.1 13.5-30.7c1.3-1.2 2.6-2.2 4-3.2C336.5 7.9 344.9 5 354 5h35c3.7 0 6.8 3 6.8 6.8v13.1z"/></svg>